<svg xmlns="http://www.w3.org/2000/svg" width="760" height="430" viewBox="0 0 760 430">
  <rect width="760" height="430" fill="white"/>
  <text x="380" y="28" text-anchor="middle" font-family="Arial, sans-serif" font-size="20" font-weight="bold">Fine-Grained Throughput vs Threads (Delete-Ratio Sweep, 1M ops)</text>

  <line x1="80" y1="370" x2="700" y2="370" stroke="#222" stroke-width="2"/>
  <line x1="80" y1="60" x2="80" y2="370" stroke="#222" stroke-width="2"/>

  <g font-family="Arial, sans-serif" font-size="12" fill="#444">
    <line x1="80" y1="370" x2="700" y2="370" stroke="#e3e3e3" stroke-width="1"/>
    <text x="68" y="374" text-anchor="end">0</text>
    <line x1="80" y1="308" x2="700" y2="308" stroke="#e3e3e3" stroke-width="1"/>
    <text x="68" y="312" text-anchor="end">4</text>
    <line x1="80" y1="246" x2="700" y2="246" stroke="#e3e3e3" stroke-width="1"/>
    <text x="68" y="250" text-anchor="end">8</text>
    <line x1="80" y1="184" x2="700" y2="184" stroke="#e3e3e3" stroke-width="1"/>
    <text x="68" y="188" text-anchor="end">12</text>
    <line x1="80" y1="122" x2="700" y2="122" stroke="#e3e3e3" stroke-width="1"/>
    <text x="68" y="126" text-anchor="end">16</text>
    <line x1="80" y1="60" x2="700" y2="60" stroke="#e3e3e3" stroke-width="1"/>
    <text x="68" y="64" text-anchor="end">20</text>
  </g>

  <g font-family="Arial, sans-serif" font-size="13" fill="#222">
    <text x="100" y="392" text-anchor="middle">2</text>
    <text x="280" y="392" text-anchor="middle">4</text>
    <text x="460" y="392" text-anchor="middle">8</text>
    <text x="640" y="392" text-anchor="middle">16</text>
    <text x="390" y="418" text-anchor="middle" font-size="14">Threads</text>
    <text x="24" y="215" text-anchor="middle" font-size="14" transform="rotate(-90 24 215)">Throughput (M ops/sec)</text>
  </g>

  <polyline fill="none" stroke="#b30000" stroke-width="3" points="100,236.5 280,141.7 460,119.5 640,61.2"/>
  <polyline fill="none" stroke="#d7301f" stroke-width="3" points="100,228.9 280,156.9 460,145.4 640,256.2"/>
  <polyline fill="none" stroke="#ef6548" stroke-width="3" points="100,235.2 280,185.1 460,278.7 640,297.1"/>
  <polyline fill="none" stroke="#fc8d59" stroke-width="3" points="100,257.3 280,304.6 460,313.7 640,320.1"/>
  <polyline fill="none" stroke="#fdbb84" stroke-width="3" points="100,313.4 280,326.8 460,330.8 640,337.3"/>

  <g fill="#b30000"><circle cx="100" cy="236.5" r="4"/><circle cx="280" cy="141.7" r="4"/><circle cx="460" cy="119.5" r="4"/><circle cx="640" cy="61.2" r="4"/></g>
  <g fill="#d7301f"><circle cx="100" cy="228.9" r="4"/><circle cx="280" cy="156.9" r="4"/><circle cx="460" cy="145.4" r="4"/><circle cx="640" cy="256.2" r="4"/></g>
  <g fill="#ef6548"><circle cx="100" cy="235.2" r="4"/><circle cx="280" cy="185.1" r="4"/><circle cx="460" cy="278.7" r="4"/><circle cx="640" cy="297.1" r="4"/></g>
  <g fill="#fc8d59"><circle cx="100" cy="257.3" r="4"/><circle cx="280" cy="304.6" r="4"/><circle cx="460" cy="313.7" r="4"/><circle cx="640" cy="320.1" r="4"/></g>
  <g fill="#fdbb84"><circle cx="100" cy="313.4" r="4"/><circle cx="280" cy="326.8" r="4"/><circle cx="460" cy="330.8" r="4"/><circle cx="640" cy="337.3" r="4"/></g>

  <g font-family="Arial, sans-serif" font-size="12" fill="#222">
    <rect x="500" y="78" width="210" height="118" fill="white" stroke="#ccc"/>
    <line x1="515" y1="100" x2="545" y2="100" stroke="#b30000" stroke-width="3"/>
    <text x="555" y="104">0.999 / 0.001 / 0.000</text>
    <line x1="515" y1="120" x2="545" y2="120" stroke="#d7301f" stroke-width="3"/>
    <text x="555" y="124">0.995 / 0.005 / 0.000</text>
    <line x1="515" y1="140" x2="545" y2="140" stroke="#ef6548" stroke-width="3"/>
    <text x="555" y="144">0.990 / 0.010 / 0.000</text>
    <line x1="515" y1="160" x2="545" y2="160" stroke="#fc8d59" stroke-width="3"/>
    <text x="555" y="164">0.980 / 0.020 / 0.000</text>
    <line x1="515" y1="180" x2="545" y2="180" stroke="#fdbb84" stroke-width="3"/>
    <text x="555" y="184">0.950 / 0.050 / 0.000</text>
  </g>
</svg>
