<svg xmlns="http://www.w3.org/2000/svg" width="760" height="430" viewBox="0 0 760 430">
  <rect width="760" height="430" fill="white"/>
  <text x="380" y="28" text-anchor="middle" font-family="Arial, sans-serif" font-size="20" font-weight="bold">Fine-Grained Throughput vs Threads (Mixed Decrease Sweep, 1M ops)</text>

  <line x1="80" y1="370" x2="700" y2="370" stroke="#222" stroke-width="2"/>
  <line x1="80" y1="60" x2="80" y2="370" stroke="#222" stroke-width="2"/>

  <g font-family="Arial, sans-serif" font-size="12" fill="#444">
    <line x1="80" y1="370" x2="700" y2="370" stroke="#e3e3e3" stroke-width="1"/>
    <text x="68" y="374" text-anchor="end">0</text>
    <line x1="80" y1="308" x2="700" y2="308" stroke="#e3e3e3" stroke-width="1"/>
    <text x="68" y="312" text-anchor="end">4</text>
    <line x1="80" y1="246" x2="700" y2="246" stroke="#e3e3e3" stroke-width="1"/>
    <text x="68" y="250" text-anchor="end">8</text>
    <line x1="80" y1="184" x2="700" y2="184" stroke="#e3e3e3" stroke-width="1"/>
    <text x="68" y="188" text-anchor="end">12</text>
    <line x1="80" y1="122" x2="700" y2="122" stroke="#e3e3e3" stroke-width="1"/>
    <text x="68" y="126" text-anchor="end">16</text>
  </g>

  <g font-family="Arial, sans-serif" font-size="13" fill="#222">
    <text x="100" y="392" text-anchor="middle">2</text>
    <text x="280" y="392" text-anchor="middle">4</text>
    <text x="460" y="392" text-anchor="middle">8</text>
    <text x="640" y="392" text-anchor="middle">16</text>
    <text x="390" y="418" text-anchor="middle" font-size="14">Threads</text>
    <text x="24" y="215" text-anchor="middle" font-size="14" transform="rotate(-90 24 215)">Throughput (M ops/sec)</text>
  </g>

  <polyline fill="none" stroke="#08519c" stroke-width="3" points="100,189.8 280,138.4 460,189.6 640,232.5"/>
  <polyline fill="none" stroke="#3182bd" stroke-width="3" points="100,230.9 280,267.4 460,286.7 640,294.2"/>
  <polyline fill="none" stroke="#6baed6" stroke-width="3" points="100,258.4 280,267.1 460,293.0 640,303.9"/>
  <polyline fill="none" stroke="#9ecae1" stroke-width="3" points="100,285.3 280,294.1 460,301.1 640,307.8"/>

  <g fill="#08519c"><circle cx="100" cy="189.8" r="4"/><circle cx="280" cy="138.4" r="4"/><circle cx="460" cy="189.6" r="4"/><circle cx="640" cy="232.5" r="4"/></g>
  <g fill="#3182bd"><circle cx="100" cy="230.9" r="4"/><circle cx="280" cy="267.4" r="4"/><circle cx="460" cy="286.7" r="4"/><circle cx="640" cy="294.2" r="4"/></g>
  <g fill="#6baed6"><circle cx="100" cy="258.4" r="4"/><circle cx="280" cy="267.1" r="4"/><circle cx="460" cy="293.0" r="4"/><circle cx="640" cy="303.9" r="4"/></g>
  <g fill="#9ecae1"><circle cx="100" cy="285.3" r="4"/><circle cx="280" cy="294.1" r="4"/><circle cx="460" cy="301.1" r="4"/><circle cx="640" cy="307.8" r="4"/></g>

  <g font-family="Arial, sans-serif" font-size="12" fill="#222">
    <rect x="485" y="78" width="225" height="100" fill="white" stroke="#ccc"/>
    <line x1="500" y1="100" x2="530" y2="100" stroke="#08519c" stroke-width="3"/>
    <text x="540" y="104">0.990 / 0.005 / 0.005</text>
    <line x1="500" y1="120" x2="530" y2="120" stroke="#3182bd" stroke-width="3"/>
    <text x="540" y="124">0.950 / 0.010 / 0.040</text>
    <line x1="500" y1="140" x2="530" y2="140" stroke="#6baed6" stroke-width="3"/>
    <text x="540" y="144">0.900 / 0.010 / 0.090</text>
    <line x1="500" y1="160" x2="530" y2="160" stroke="#9ecae1" stroke-width="3"/>
    <text x="540" y="164">0.800 / 0.010 / 0.190</text>
  </g>
</svg>
